<?xml version="1.0" standalone="no"?>
<!DOCTYPE svg PUBLIC "-//W3C//DTD SVG 20010904//EN"
 "http://www.w3.org/TR/2001/REC-SVG-20010904/DTD/svg10.dtd">
<svg version="1.0" xmlns="http://www.w3.org/2000/svg"
 width="260.000000pt" height="260.000000pt" viewBox="0 0 260.000000 260.000000"
 preserveAspectRatio="xMidYMid meet">
<metadata>
Created by potrace 1.14, written by Peter Selinger 2001-2017
</metadata>
<g transform="translate(0.000000,260.000000) scale(0.100000,-0.100000)"
fill="#000000" stroke="none">
<path d="M1250 2371 c-40 -5 -47 -11 -68 -48 -25 -46 -42 -55 -42 -24 0 23 -4
26 -47 35 -26 6 -32 4 -37 -12 -5 -14 -19 -21 -49 -25 -56 -8 -125 -47 -160
-92 -59 -75 -69 -161 -26 -231 20 -33 81 -79 115 -86 10 -2 18 -8 17 -14 -1
-5 -45 -241 -98 -524 -53 -283 -97 -527 -97 -543 -1 -15 6 -35 15 -45 16 -17
15 -28 -8 -163 -14 -79 -28 -156 -31 -171 -5 -25 -2 -28 45 -42 123 -36 584
-116 673 -116 36 0 48 4 52 18 3 9 64 349 137 755 l132 738 -24 23 c-13 12
-60 33 -104 46 -44 13 -86 28 -94 34 -16 12 -9 85 10 96 6 4 9 12 6 17 -10 15
24 166 40 185 8 9 32 18 52 20 32 3 36 6 39 35 3 25 -1 33 -20 38 -13 4 -41
15 -63 25 -22 9 -73 28 -112 41 -40 12 -73 27 -73 31 0 9 -110 8 -180 -1z
m-210 -109 c0 -5 5 -45 11 -89 l11 -81 -42 -76 c-47 -85 -66 -94 -126 -57 -28
17 -32 25 -42 96 -6 43 -7 87 -2 99 16 41 97 101 146 109 16 2 32 5 37 6 4 0
7 -3 7 -7z m226 -268 c-3 -9 -6 -22 -6 -29 0 -22 -32 -34 -70 -26 l-34 7 44
32 c48 35 76 42 66 16z"/>
</g>
</svg>
